<svg width="20" viewBox="0 0 20 16" xmlns="http://www.w3.org/2000/svg">
  <g fill="#340C0C" fill-rule="nonzero">
    <path
      d="M16.145 10.768v-6.21a2.891 2.891 0 0 0-2.896-2.886H7.023a2.891 2.891 0 0 0-2.896 2.886v6.21a2.891 2.891 0 0 0 2.896 2.886h6.226c1.6 0 2.896-1.293 2.896-2.886zm1 0a3.891 3.891 0 0 1-3.896 3.886H7.023a3.891 3.891 0 0 1-3.896-3.886v-6.21A3.891 3.891 0 0 1 7.023.672h6.226a3.891 3.891 0 0 1 3.896 3.886v6.21z"/>
    <path
      d="M13.045 7.663c0-1.602-1.302-2.9-2.91-2.9a2.904 2.904 0 0 0-2.909 2.9c0 1.602 1.302 2.9 2.91 2.9a2.904 2.904 0 0 0 2.91-2.9zm1 0c0 2.155-1.75 3.9-3.91 3.9a3.904 3.904 0 0 1-3.909-3.9c0-2.155 1.75-3.9 3.91-3.9a3.904 3.904 0 0 1 3.91 3.9zM13.665 3.336a.19.19 0 1 0 .38 0 .19.19 0 1 0-.38 0zm1 0a.81.81 0 1 1-1.62-.001.81.81 0 0 1 1.62 0z"/>
  </g>
</svg>
